<?xml version="1.0" encoding="UTF-8"?>
<!DOCTYPE svg PUBLIC "-//W3C//DTD SVG 1.1//EN" "http://www.w3.org/Graphics/SVG/1.1/DTD/svg11.dtd">
<!-- Creator: CorelDRAW X8 -->
<svg xmlns="http://www.w3.org/2000/svg" xml:space="preserve" width="2480px" height="2480px" version="1.1" style="shape-rendering:geometricPrecision; text-rendering:geometricPrecision; image-rendering:optimizeQuality; fill-rule:evenodd; clip-rule:evenodd"
viewBox="0 0 2480 2480"
 xmlns:xlink="http://www.w3.org/1999/xlink">
 <defs>
  <style type="text/css">
   <![CDATA[
    .fil3 {fill:#1D89E4}
    .fil0 {fill:#3E50B6}
    .fil4 {fill:#42A145}
    .fil1 {fill:#F37801}
    .fil2 {fill:#FEC106}
   ]]>
  </style>
 </defs>
 <g id="Слой_x0020_1">
  <metadata id="CorelCorpID_0Corel-Layer"/>
  <path class="fil0" d="M1146 233c39,-13 80,-12 120,-18 64,7 130,11 190,38 97,37 179,106 239,190 104,150 121,358 37,521 -44,89 -113,166 -198,217 -59,37 -126,57 -193,70 -4,-8 -7,-17 -6,-26 0,-109 0,-217 0,-326 0,-9 -2,-21 9,-26 42,-3 85,0 128,-1 6,-44 14,-88 20,-132 -49,-1 -99,3 -148,-1 -2,-2 -6,-5 -8,-7 -1,-50 -9,-106 21,-149 32,-43 91,-26 137,-29 0,-39 0,-78 0,-116 -73,-13 -154,-17 -221,19 -32,23 -62,54 -72,94 -19,61 -8,126 -11,189 -44,1 -88,0 -131,1 -1,43 -1,87 0,131 43,0 87,-1 131,0 0,125 0,249 0,374 -36,1 -70,-11 -103,-22 -62,-26 -121,-60 -172,-105 -110,-101 -173,-250 -168,-399 5,-115 47,-228 121,-316 70,-85 170,-146 278,-171z"/>
  <g id="_2352490137840">
   <path class="fil1" d="M2062 1312c0,-40 36,-75 76,-76 62,0 124,0 187,0 45,-3 91,36 88,83 1,284 0,567 1,851 2,28 -1,59 -22,81 -17,13 -38,25 -60,23 -91,-1 -181,0 -271,-1 -3,-207 -1,-415 -2,-622 0,-30 0,-59 2,-89 2,-83 0,-167 1,-250z"/>
   <path class="fil2" d="M1724 1590c20,-24 54,-24 82,-27 85,-1 170,0 255,-1 -2,30 -2,59 -2,89 1,207 -1,415 2,622 -203,1 -405,0 -608,1 -40,2 -79,-36 -76,-76 1,-70 0,-139 0,-208 -2,-38 37,-63 70,-69 85,-1 170,0 255,-1 1,-89 0,-179 0,-269 -1,-23 9,-44 22,-61z"/>
  </g>
  <g id="_2352490136432">
   <path class="fil3" d="M552 1302c57,-22 126,-15 175,23 30,19 49,50 65,81 97,163 193,327 290,491 34,64 86,125 86,201 -6,47 -22,96 -58,128 -52,50 -132,60 -197,34 -42,-14 -71,-51 -93,-87 -67,-113 -132,-227 -200,-339 -52,-91 -106,-180 -158,-271 -28,-47 -31,-105 -13,-155 17,-48 57,-86 103,-106z"/>
   <path class="fil2" d="M327 1610c42,-67 78,-137 122,-202 -18,50 -15,108 13,155 52,91 106,180 158,271 -48,81 -95,162 -144,243 -14,24 -26,51 -45,72 9,-43 10,-90 -9,-131 -28,-67 -100,-111 -172,-108 -47,0 -89,24 -126,51 8,-23 23,-43 35,-63 55,-97 113,-192 168,-288z"/>
   <path class="fil4" d="M124 1961c37,-27 79,-51 126,-51 72,-3 144,41 172,108 19,41 18,88 9,131 -24,57 -72,109 -134,122 -49,6 -102,4 -143,-27 -53,-31 -77,-93 -82,-151 5,-47 21,-96 52,-132z"/>
  </g>
 </g>
</svg>
