<svg width="18" height="36" viewBox="0 0 18 36" fill="none"
    xmlns="http://www.w3.org/2000/svg">
    <path d="M8.60988 2.62423C8.6416 2.54685 8.69562 2.48066 8.76507 2.43407C8.83452 2.38749 8.91625 2.36261 8.99988 2.36261C9.08351 2.36261 9.16524 2.38749 9.23469 2.43407C9.30414 2.48066 9.35816 2.54685 9.38988 2.62423L10.9836 6.45748C11.0135 6.5292 11.0625 6.59131 11.1254 6.63696C11.1882 6.68261 11.2624 6.71004 11.3399 6.71623L15.4784 7.04773C15.8526 7.07773 16.0041 7.54498 15.7191 7.78873L12.5661 10.4902C12.5072 10.5406 12.4633 10.6063 12.4392 10.6799C12.4152 10.7536 12.4118 10.8325 12.4296 10.908L13.3934 14.9467C13.4127 15.0278 13.4077 15.1127 13.3788 15.1909C13.3499 15.269 13.2985 15.3368 13.2311 15.3858C13.1637 15.4347 13.0833 15.4626 13 15.4659C12.9168 15.4692 12.8344 15.4477 12.7634 15.4042L9.21963 13.2405C9.15346 13.2001 9.07742 13.1787 8.99988 13.1787C8.92234 13.1787 8.8463 13.2001 8.78013 13.2405L5.23638 15.405C5.16532 15.4485 5.08297 15.4699 4.99972 15.4667C4.91647 15.4634 4.83607 15.4355 4.76865 15.3865C4.70124 15.3376 4.64985 15.2697 4.62097 15.1916C4.59209 15.1135 4.58701 15.0285 4.60638 14.9475L5.57013 10.908C5.588 10.8325 5.58472 10.7536 5.56063 10.6799C5.53655 10.6062 5.4926 10.5406 5.43363 10.4902L2.28063 7.78873C2.21714 7.7346 2.17113 7.66285 2.14845 7.58257C2.12576 7.50228 2.12742 7.41706 2.1532 7.33771C2.17898 7.25837 2.22772 7.18845 2.29327 7.13683C2.35881 7.08521 2.4382 7.0542 2.52138 7.04773L6.65988 6.71623C6.73732 6.71004 6.81155 6.68261 6.8744 6.63696C6.93725 6.59131 6.9863 6.5292 7.01613 6.45748L8.60988 2.62423Z" stroke="#d6d6d6" fill="#F5F5F5"/>
    <path d="M8.60988 20.6242C8.6416 20.5469 8.69562 20.4807 8.76507 20.4341C8.83452 20.3875 8.91625 20.3626 8.99988 20.3626C9.08351 20.3626 9.16524 20.3875 9.23469 20.4341C9.30414 20.4807 9.35816 20.5469 9.38988 20.6242L10.9836 24.4575C11.0135 24.5292 11.0625 24.5913 11.1254 24.637C11.1882 24.6826 11.2624 24.71 11.3399 24.7162L15.4784 25.0477C15.8526 25.0777 16.0041 25.545 15.7191 25.7887L12.5661 28.4902C12.5072 28.5406 12.4633 28.6063 12.4392 28.6799C12.4152 28.7536 12.4118 28.8325 12.4296 28.908L13.3934 32.9467C13.4127 33.0278 13.4077 33.1127 13.3788 33.1909C13.3499 33.269 13.2985 33.3368 13.2311 33.3858C13.1637 33.4347 13.0833 33.4626 13 33.4659C12.9168 33.4692 12.8344 33.4477 12.7634 33.4042L9.21963 31.2405C9.15346 31.2001 9.07742 31.1787 8.99988 31.1787C8.92234 31.1787 8.8463 31.2001 8.78013 31.2405L5.23638 33.405C5.16532 33.4485 5.08297 33.4699 4.99972 33.4667C4.91647 33.4634 4.83607 33.4355 4.76865 33.3865C4.70124 33.3376 4.64985 33.2697 4.62097 33.1916C4.59209 33.1135 4.58701 33.0285 4.60638 32.9475L5.57013 28.908C5.588 28.8325 5.58472 28.7536 5.56063 28.6799C5.53655 28.6062 5.4926 28.5406 5.43363 28.4902L2.28063 25.7887C2.21714 25.7346 2.17113 25.6629 2.14845 25.5826C2.12576 25.5023 2.12742 25.4171 2.1532 25.3377C2.17898 25.2584 2.22772 25.1885 2.29327 25.1368C2.35881 25.0852 2.4382 25.0542 2.52138 25.0477L6.65988 24.7162C6.73732 24.71 6.81155 24.6826 6.8744 24.637C6.93725 24.5913 6.9863 24.5292 7.01613 24.4575L8.60988 20.6242Z" stroke="#FFA500" fill="#FFA500"/>
</svg>
