<svg width="96" height="96" viewBox="0 0 96 96" fill="none" xmlns="http://www.w3.org/2000/svg">
<path d="M48 0C74.5107 0 96 21.4893 96 48C96 74.5107 74.5107 96 48 96C21.4893 96 0 74.5107 0 48C0 21.4893 21.4893 0 48 0Z" fill="#2F6F23"/>
<path d="M32.248 51.615C43.5181 38.4239 59.4311 37.087 72.0375 36.4595C74.076 60.0931 58.7493 72.3225 41.4318 75.5487C43.5249 61.0753 50.9428 49.221 67.7217 41.0839C50.7519 45.6674 36.3047 55.7006 33.1344 76.3058C30.3458 76.5718 27.5232 76.6673 24.721 76.6059V29.7207C24.6801 27.7291 24.6529 25.6829 23.9438 23.7936C23.5415 22.6613 22.6825 21.7064 21.578 21.229V20.2877C25.1369 20.24 28.7027 20.2536 32.2617 20.2877C32.2617 30.7302 32.248 41.1589 32.248 51.615ZM72.1261 76.6127V63.2647C68.1512 65.5428 64.6741 69.7921 64.6264 76.2239V76.6127H72.1261ZM64.6059 20.4173H72.1261V32.2034H64.6059V20.4105V20.4173Z" fill="white"/>
</svg>
