<svg width="367" height="100" viewBox="0 0 367 100" fill="none" xmlns="http://www.w3.org/2000/svg">
<path d="M50 0C77.6153 0 100 22.3847 100 50C100 77.6153 77.6153 100 50 100C22.3847 100 0 77.6153 0 50C0 22.3847 22.3847 0 50 0Z" fill="#2F6F23"/>
<path d="M33.1668 54.823C44.9616 41.0156 61.6155 39.6164 74.8088 38.9595C76.9422 63.6971 60.902 76.4978 42.7782 79.8747C44.9687 64.7251 52.732 52.3171 70.2921 43.8C52.5322 48.5975 37.4124 59.0994 34.0944 80.6671C31.1761 80.9455 28.222 81.0455 25.2894 80.9812V31.9059C25.2466 29.8213 25.218 27.6795 24.476 25.7019C24.055 24.5168 23.1559 23.5173 22 23.0176V22.0323C25.7247 21.9824 29.4564 21.9967 33.1811 22.0323C33.1811 32.9626 33.1668 43.8785 33.1668 54.823ZM74.9015 80.9884V67.0168C70.7416 69.4014 67.1026 73.8491 67.0526 80.5814V80.9884H74.9015ZM67.0312 22.168H74.9015V34.5046H67.0312V22.1609V22.168Z" fill="white"/>
<path d="M114.223 28.906C117.648 28.906 121.08 28.906 124.505 28.906V48.7118C132.634 48.7118 140.764 48.7118 148.894 48.7118C148.894 42.1122 148.894 35.5056 148.894 28.906C151.264 28.906 153.641 28.906 156.011 28.906C156.011 44.0878 156.011 59.2626 156.011 74.4444H148.894C148.894 67.6254 148.894 60.8063 148.894 53.9872C140.764 53.9872 132.634 53.9872 124.505 53.9872C124.505 60.8063 124.505 67.6254 124.505 74.4374C122.135 74.4374 119.758 74.4374 117.388 74.4374C117.388 63.7024 117.388 52.9746 117.388 42.2397C117.36 39.5418 117.486 36.8297 117.177 34.146C117.022 33.006 116.734 31.8376 116.023 30.91C115.566 30.3152 114.933 29.8832 114.237 29.6354C114.223 29.3875 114.216 29.1468 114.223 28.8989V28.906ZM181.153 28.906C184.261 28.906 187.362 28.906 190.471 28.906C190.471 44.0878 190.471 59.2626 190.471 74.4444H184.001V39.1169C183.98 37.2688 184.071 35.4206 183.888 33.5795C183.755 32.5386 183.523 31.441 182.819 30.6338C182.383 30.1169 181.779 29.7911 181.16 29.5645C181.16 29.3521 181.16 29.1326 181.16 28.9131L181.153 28.906ZM321.496 28.906C324.605 28.906 327.706 28.906 330.814 28.906C330.814 41.0926 330.814 53.2791 330.814 65.4727C330.814 68.468 330.751 71.4987 331.391 74.4444H324.858C324.773 73.2548 324.682 72.0581 324.598 70.8685C323.275 72.8087 321.123 74.0125 318.922 74.671C316.243 75.4995 313.324 75.365 310.659 74.5365C308.254 73.7717 306.095 72.2635 304.555 70.2524C302.789 67.9794 301.805 65.1682 301.404 62.3287C300.989 59.3193 301.087 56.1894 302.044 53.2862C302.839 50.8432 304.224 48.5985 306.088 46.8353C308.113 44.9022 310.68 43.5709 313.409 42.9761C315.835 42.4663 318.409 42.4167 320.814 43.0753C322.087 43.4293 323.296 44.0383 324.337 44.8668C324.337 42.4309 324.337 39.9879 324.337 37.552C324.33 36.1712 324.372 34.7762 324.204 33.4025C324.063 32.4182 323.817 31.3915 323.149 30.6267C322.72 30.1098 322.115 29.7841 321.489 29.5575C321.489 29.338 321.489 29.1255 321.489 28.906H321.496ZM210.584 28.906C222.709 28.906 234.826 28.906 246.943 28.906V34.3089H232.385C232.385 47.685 232.385 61.0612 232.385 74.4374C229.994 74.4374 227.596 74.4374 225.205 74.4374C225.205 61.0612 225.205 47.685 225.205 34.3089C222.216 34.3089 219.22 34.3089 216.231 34.3089C215.092 34.3584 213.953 34.5071 212.926 35.0241C212.089 35.4489 211.513 36.2562 211.224 37.1413C211.013 37.1413 210.795 37.1413 210.584 37.1413V34.3089C210.584 32.5103 210.584 30.7046 210.584 28.8989V28.906ZM169.471 29.6637C171.23 29.0901 173.325 30.0107 174.057 31.7314C174.865 33.4591 174.134 35.7251 172.46 36.6315C171.131 37.3962 169.345 37.2546 168.177 36.2491C166.947 35.2365 166.483 33.3954 167.073 31.9084C167.481 30.8462 168.388 29.9965 169.471 29.6708V29.6637ZM259.194 43.9108C260.607 43.0469 262.267 42.6575 263.906 42.6645C265.755 42.7212 267.591 43.4151 268.969 44.6685C268.386 46.5591 267.802 48.4427 267.218 50.3334C264.665 48.0391 260.326 47.9187 257.83 50.3617C256.24 51.8983 255.467 54.0793 255.101 56.2248C254.728 58.335 254.813 60.4805 254.799 62.6119C254.799 66.5561 254.799 70.5003 254.799 74.4374C252.639 74.4374 250.48 74.4374 248.328 74.4374C248.328 66.4145 248.328 58.3916 248.328 50.3688C248.3 48.8038 248.293 47.154 247.583 45.7236C247.161 44.8809 246.359 44.3003 245.48 44.01C245.48 43.7975 245.48 43.578 245.48 43.3656C248.497 43.3656 251.521 43.3656 254.538 43.3656C254.559 45.3837 254.581 47.4018 254.602 49.4199C255.572 47.1964 257.084 45.15 259.194 43.9037V43.9108ZM278.484 43.5497C281.832 42.4309 285.58 42.2822 288.907 43.5638C291.087 44.4065 292.944 46.1201 293.83 48.3082C294.463 49.8094 294.674 51.4522 294.674 53.0737C294.674 58.2429 294.674 63.4121 294.674 68.5884C294.667 69.3248 294.92 70.1958 295.651 70.5003C296.615 70.8685 297.691 70.564 298.556 70.0754C298.619 74.1541 292.979 76.4555 289.913 74.1895C289.076 73.5805 288.626 72.5821 288.457 71.5766C286.699 73.5168 284.16 74.5719 281.621 74.9543C279.392 75.3012 276.987 75.0038 275.074 73.7363C273.414 72.6671 272.261 70.8614 271.951 68.907C271.6 66.549 271.951 63.9857 273.358 62.0171C275.046 59.6025 277.767 58.1863 280.482 57.2516C282.999 56.4302 285.587 55.8424 288.197 55.4176C288.211 53.711 288.274 51.8983 287.416 50.3617C286.755 49.0942 285.44 48.2798 284.054 48.0532C282.606 47.8196 281.115 47.947 279.687 48.2657C277.254 48.7897 275.088 50.2342 273.449 52.0895C273.449 50.2201 273.449 48.3507 273.449 46.4812C274.842 45.0792 276.635 44.1657 278.484 43.5426V43.5497ZM348.058 43.5143C350.717 42.4946 353.663 42.3601 356.448 42.8911C358.671 43.316 360.809 44.3003 362.482 45.851C364.402 47.6001 365.633 50.0005 366.28 52.5002C366.927 54.9148 366.99 57.4357 366.969 59.9141C359.613 59.9141 352.264 59.9141 344.908 59.9141C345.702 70.6702 357.292 72.2989 365.092 67.2076C364.023 72.7804 354.332 76.3988 348.438 74.2532C345.97 73.3823 343.726 71.8669 342.024 69.863C340.175 67.7103 339 65.0124 338.522 62.2154C337.706 57.4569 338.684 52.2948 341.617 48.4144C343.255 46.2193 345.506 44.4773 348.065 43.5143H348.058ZM164.556 43.3656C167.664 43.3656 170.765 43.3656 173.874 43.3656C173.874 53.7252 173.874 64.0777 173.874 74.4374C171.715 74.4374 169.556 74.4374 167.404 74.4374C167.404 66.4145 167.404 58.3846 167.404 50.3617C167.383 48.8322 167.362 47.2318 166.708 45.8156C166.293 44.9305 165.47 44.3074 164.563 44.0029C164.563 43.7904 164.563 43.5709 164.563 43.3585L164.556 43.3656ZM348.087 49.519C346.434 51.0202 345.569 53.1941 345.168 55.3538H360.562C360.464 54.4545 360.309 53.5623 360.021 52.7055C359.409 50.7228 358.003 48.9242 356.033 48.1878C353.41 47.2106 350.189 47.5788 348.087 49.519ZM282.352 60.8488C281.129 61.4153 279.947 62.1871 279.16 63.313C278.386 64.3964 278.105 65.7914 278.302 67.1084C278.442 68.0148 278.906 68.8787 279.631 69.4381C280.58 70.1816 281.818 70.4224 282.999 70.4011C284.99 70.3657 286.917 69.3885 288.197 67.8661C288.197 64.977 288.197 62.095 288.197 59.206C286.199 59.5529 284.202 60.0061 282.352 60.8558V60.8488ZM314.752 48.1807C312.354 48.8605 310.356 50.652 309.252 52.8755C307.874 55.5946 307.67 58.774 308.134 61.7481C308.528 64.2264 309.618 66.7048 311.601 68.2981C313.767 70.0612 316.826 70.472 319.464 69.7214C321.503 69.1124 323.36 67.6962 324.323 65.763C324.358 60.6859 324.323 55.6088 324.337 50.5316C321.904 48.0249 318.043 47.2531 314.752 48.1807Z" fill="#2F6F23"/>
</svg>
