<svg width="50" height="50" viewBox="0 0 50 50" fill="none" xmlns="http://www.w3.org/2000/svg">
<path fill-rule="evenodd" clip-rule="evenodd" d="M50 25C50 11.1923 38.8077 0 25 0C11.1923 0 0 11.1923 0 25C0 38.8077 11.1923 50 25 50C38.8077 50 50 38.8077 50 25ZM37.484 18.9637C30.9226 19.2902 22.6401 19.9857 16.7742 26.8487C16.7742 24.1278 16.776 21.4105 16.7778 18.694C16.7796 15.9793 16.7813 13.2655 16.7813 10.5499C14.929 10.5322 13.073 10.5251 11.2206 10.5499V11.0397C11.7955 11.2881 12.2427 11.7849 12.452 12.3739C12.8133 13.3362 12.8345 14.3766 12.8552 15.3921C12.8557 15.414 12.8561 15.4358 12.8566 15.4577V39.8509C14.315 39.8828 15.7842 39.8331 17.2356 39.6947C18.8857 28.9744 26.4052 23.7544 35.2377 21.3697C26.5045 25.6032 22.6436 31.7707 21.5542 39.3008C30.5677 37.6223 38.545 31.2597 37.484 18.9637ZM37.5301 32.9098V39.8544H33.6266V39.6521C33.6515 36.3058 35.4612 34.095 37.5301 32.9098ZM37.5301 10.6174H33.616V16.7494H37.5301V10.6174Z" fill="#2F6F23"/>
</svg>
