<svg width="375" height="102" viewBox="0 0 375 102" fill="none" xmlns="http://www.w3.org/2000/svg">
<path fill-rule="evenodd" clip-rule="evenodd" d="M102 51C102 22.8324 79.1676 0 51 0C22.8324 0 0 22.8324 0 51C0 79.1676 22.8324 102 51 102C79.1676 102 102 79.1676 102 51ZM76.5396 38.7384C63.1454 39.4051 46.2378 40.8255 34.2633 54.8411C34.2633 49.2845 34.267 43.7351 34.2706 38.1876C34.2742 32.6437 34.2778 27.1016 34.2778 21.5559C30.4964 21.5196 26.7078 21.5051 22.9264 21.5559V22.5559C24.0999 23.0632 25.0127 24.0778 25.4401 25.2808C26.1776 27.2459 26.2209 29.3707 26.2632 31.4445C26.2641 31.4892 26.265 31.5338 26.2659 31.5784V81.3939C29.2432 81.4591 32.2423 81.3577 35.2051 81.075C38.5736 59.182 53.9237 48.5217 71.9541 43.6518C54.1265 52.2974 46.245 64.8926 44.0211 80.2706C62.421 76.8428 78.7056 63.849 76.5396 38.7384ZM76.6338 67.2189V81.4011H68.6653V80.9881C68.716 74.1542 72.4105 69.6393 76.6338 67.2189ZM76.6338 21.6935H68.6436V34.2163H76.6338V21.6935Z" fill="#2F6F23"/>
<path d="M116.507 29.4843C120.001 29.4843 123.501 29.4843 126.995 29.4843V49.6862C135.287 49.6862 143.579 49.6862 151.872 49.6862C151.872 42.9546 151.872 36.2158 151.872 29.4843C154.289 29.4843 156.714 29.4843 159.131 29.4843C159.131 44.9698 159.131 60.448 159.131 75.9335H151.872C151.872 68.978 151.872 62.0225 151.872 55.0671C143.579 55.0671 135.287 55.0671 126.995 55.0671C126.995 62.0225 126.995 68.978 126.995 75.9263C124.577 75.9263 122.153 75.9263 119.735 75.9263C119.735 64.9766 119.735 54.0342 119.735 43.0846C119.707 40.3328 119.836 37.5665 119.52 34.8291C119.362 33.6662 119.068 32.4745 118.344 31.5283C117.877 30.9216 117.232 30.481 116.522 30.2282C116.507 29.9754 116.5 29.7298 116.507 29.4771V29.4843ZM184.776 29.4843C187.946 29.4843 191.11 29.4843 194.28 29.4843C194.28 44.9698 194.28 60.448 194.28 75.9335H187.681V39.8994C187.659 38.0143 187.753 36.1292 187.566 34.2513C187.43 33.1895 187.193 32.07 186.476 31.2466C186.031 30.7194 185.414 30.3871 184.783 30.156C184.783 29.9393 184.783 29.7154 184.783 29.4915L184.776 29.4843ZM327.926 29.4843C331.097 29.4843 334.26 29.4843 337.431 29.4843C337.431 41.9145 337.431 54.3448 337.431 66.7823C337.431 69.8375 337.366 72.9288 338.019 75.9335H331.355C331.269 74.7201 331.175 73.4994 331.089 72.286C329.741 74.265 327.546 75.4929 325.301 76.1646C322.568 77.0096 319.591 76.8724 316.872 76.0274C314.419 75.2473 312.216 73.7089 310.645 71.6576C308.845 69.3391 307.841 66.4717 307.432 63.5754C307.009 60.5058 307.109 57.3133 308.085 54.352C308.895 51.8602 310.308 49.5706 312.209 47.7722C314.275 45.8004 316.893 44.4425 319.677 43.8358C322.151 43.3157 324.777 43.2652 327.23 43.9369C328.529 44.298 329.762 44.9192 330.824 45.7642C330.824 43.2796 330.824 40.7878 330.824 38.3032C330.817 36.8948 330.86 35.4719 330.688 34.0707C330.544 33.0667 330.293 32.0194 329.612 31.2394C329.174 30.7121 328.557 30.3799 327.919 30.1488C327.919 29.9249 327.919 29.7082 327.919 29.4843H327.926ZM214.796 29.4843C227.163 29.4843 239.522 29.4843 251.882 29.4843V34.9952H237.033C237.033 48.6389 237.033 62.2826 237.033 75.9263C234.594 75.9263 232.148 75.9263 229.709 75.9263C229.709 62.2826 229.709 48.6389 229.709 34.9952C226.66 34.9952 223.605 34.9952 220.556 34.9952C219.394 35.0458 218.232 35.1974 217.185 35.7247C216.331 36.1581 215.743 36.9814 215.449 37.8843C215.233 37.8843 215.011 37.8843 214.796 37.8843V34.9952C214.796 33.1606 214.796 31.3188 214.796 29.4771V29.4843ZM172.861 30.2571C174.654 29.6721 176.792 30.611 177.538 32.3661C178.363 34.1285 177.617 36.4397 175.909 37.3642C174.554 38.1443 172.732 37.9998 171.541 36.9742C170.286 35.9414 169.812 34.0635 170.415 32.5467C170.831 31.4633 171.756 30.5966 172.861 30.2643V30.2571ZM264.378 44.7892C265.82 43.908 267.512 43.5108 269.184 43.518C271.07 43.5758 272.943 44.2836 274.349 45.562C273.753 47.4905 273.158 49.4117 272.562 51.3402C269.959 49 265.533 48.8772 262.986 51.3691C261.365 52.9364 260.576 55.161 260.203 57.3495C259.823 59.5018 259.909 61.6903 259.894 63.8643C259.894 67.8874 259.894 71.9104 259.894 75.9263C257.692 75.9263 255.49 75.9263 253.295 75.9263C253.295 67.7429 253.295 59.5596 253.295 51.3763C253.266 49.7801 253.259 48.0972 252.535 46.6382C252.104 45.7787 251.286 45.1864 250.39 44.8903C250.39 44.6736 250.39 44.4497 250.39 44.233C253.467 44.233 256.552 44.233 259.629 44.233C259.65 46.2915 259.672 48.35 259.694 50.4084C260.683 48.1405 262.226 46.0532 264.378 44.782V44.7892ZM284.054 44.4208C287.469 43.2796 291.292 43.128 294.685 44.4353C296.909 45.2948 298.802 47.0427 299.706 49.2745C300.352 50.8057 300.567 52.4814 300.567 54.1354C300.567 59.4079 300.567 64.6805 300.567 69.9603C300.56 70.7115 300.818 71.5998 301.564 71.9104C302.547 72.286 303.644 71.9754 304.527 71.4771C304.591 75.6373 298.838 77.9847 295.711 75.6735C294.857 75.0523 294.398 74.0339 294.226 73.0083C292.432 74.9873 289.843 76.0635 287.253 76.4535C284.979 76.8074 282.526 76.5041 280.575 75.2112C278.882 74.1206 277.706 72.2788 277.39 70.2853C277.031 67.8802 277.39 65.2655 278.825 63.2576C280.546 60.7947 283.322 59.3501 286.091 58.3968C288.659 57.5589 291.299 56.9594 293.96 56.5261C293.975 54.7854 294.039 52.9364 293.164 51.3691C292.49 50.0762 291.148 49.2456 289.735 49.0145C288.258 48.7761 286.737 48.9061 285.281 49.2311C282.799 49.7656 280.589 51.239 278.918 53.1314C278.918 51.2246 278.918 49.3178 278.918 47.411C280.338 45.9809 282.167 45.0492 284.054 44.4136V44.4208ZM355.019 44.3847C357.731 43.3446 360.737 43.2074 363.577 43.7491C365.844 44.1825 368.025 45.1864 369.732 46.7682C371.69 48.5522 372.946 51.0007 373.606 53.5503C374.265 56.0133 374.33 58.5845 374.309 61.1125C366.805 61.1125 359.309 61.1125 351.806 61.1125C352.616 72.0838 364.438 73.745 372.393 68.5519C371.303 74.2361 361.418 77.9269 355.407 75.7385C352.889 74.8501 350.601 73.3044 348.865 71.2604C346.978 69.0647 345.78 66.3128 345.293 63.4599C344.46 58.6062 345.457 53.3409 348.449 49.3828C350.12 47.1438 352.416 45.367 355.027 44.3847H355.019ZM167.847 44.233C171.017 44.233 174.181 44.233 177.351 44.233C177.351 54.7998 177.351 65.3594 177.351 75.9263C175.149 75.9263 172.947 75.9263 170.752 75.9263C170.752 67.7429 170.752 59.5524 170.752 51.3691C170.73 49.809 170.709 48.1766 170.042 46.7321C169.618 45.8292 168.779 45.1937 167.854 44.8831C167.854 44.6664 167.854 44.4425 167.854 44.2258L167.847 44.233ZM355.048 50.5096C353.362 52.0408 352.48 54.2581 352.071 56.4611H367.774C367.673 55.5438 367.515 54.6337 367.221 53.7598C366.597 51.7374 365.163 49.9029 363.154 49.1517C360.478 48.155 357.193 48.5305 355.048 50.5096ZM287.999 62.0659C286.751 62.6437 285.546 63.431 284.743 64.5794C283.954 65.6845 283.667 67.1073 283.868 68.4508C284.011 69.3753 284.484 70.2564 285.223 70.827C286.192 71.5854 287.454 71.831 288.659 71.8093C290.689 71.7732 292.655 70.7765 293.96 69.2236C293.96 66.2767 293.96 63.3371 293.96 60.3902C291.923 60.7441 289.886 61.2064 287.999 62.0731V62.0659ZM321.047 49.1445C318.601 49.8379 316.563 51.6652 315.437 53.9331C314.031 56.7066 313.823 59.9496 314.297 62.9832C314.698 65.5111 315.81 68.0391 317.833 69.6642C320.043 71.4626 323.163 71.8815 325.853 71.1159C327.933 70.4948 329.827 69.0502 330.81 67.0784C330.845 61.8998 330.81 56.7211 330.824 51.5424C328.342 48.9856 324.404 48.1983 321.047 49.1445Z" fill="#2F6F23"/>
</svg>
