<svg width="152" height="27" viewBox="0 0 152 27" fill="none" xmlns="http://www.w3.org/2000/svg">
<path d="M0.00165917 0.00413069C2.06132 0.00413069 4.12521 0.00413069 6.18488 0.00413069V11.5464C11.0739 11.5464 15.963 11.5464 20.852 11.5464C20.852 7.70035 20.852 3.85017 20.852 0.00413069C22.2773 0.00413069 23.7068 0.00413069 25.1321 0.00413069C25.1321 8.85168 25.1321 17.6951 25.1321 26.5427H20.852C20.852 22.5687 20.852 18.5947 20.852 14.6207C15.963 14.6207 11.0739 14.6207 6.18488 14.6207C6.18488 18.5947 6.18488 22.5687 6.18488 26.5385C4.75961 26.5385 3.33011 26.5385 1.90484 26.5385C1.90484 20.2825 1.90484 14.0306 1.90484 7.77463C1.88792 6.20237 1.96405 4.62186 1.77796 3.05785C1.68492 2.39346 1.51151 1.71257 1.08436 1.17198C0.809453 0.825336 0.428817 0.573609 0.0101177 0.429176C0.00165917 0.284743 -0.00257012 0.144433 0.00165917 0V0.00413069ZM40.2518 0.00413069C42.1211 0.00413069 43.9862 0.00413069 45.8556 0.00413069C45.8556 8.85168 45.8556 17.6951 45.8556 26.5427H41.9646V5.95477C41.952 4.87771 42.0069 3.80065 41.897 2.72772C41.8166 2.1211 41.6771 1.48147 41.2541 1.01104C40.9919 0.70979 40.6282 0.51996 40.256 0.387907C40.256 0.264107 40.256 0.136181 40.256 0.00825508L40.2518 0.00413069ZM124.651 0.00413069C126.521 0.00413069 128.386 0.00413069 130.255 0.00413069C130.255 7.10611 130.255 14.2081 130.255 21.3142C130.255 23.0598 130.217 24.826 130.602 26.5427H126.673C126.622 25.8494 126.567 25.152 126.517 24.4587C125.721 25.5894 124.427 26.2909 123.104 26.6747C121.492 27.1575 119.737 27.0791 118.134 26.5963C116.688 26.1506 115.389 25.2716 114.463 24.0997C113.402 22.775 112.809 21.1367 112.568 19.4819C112.319 17.7281 112.378 15.9041 112.953 14.2122C113.431 12.7885 114.264 11.4804 115.385 10.4528C116.603 9.32624 118.147 8.55043 119.788 8.2038C121.247 7.90668 122.795 7.87779 124.241 8.26157C125.007 8.4679 125.734 8.82279 126.36 9.30561C126.36 7.88604 126.36 6.46234 126.36 5.04277C126.356 4.23808 126.381 3.42513 126.28 2.62455C126.195 2.05095 126.047 1.45258 125.645 1.00691C125.387 0.705659 125.024 0.515835 124.647 0.383782C124.647 0.255856 124.647 0.132057 124.647 0.00413069H124.651ZM57.9514 0.00413069C65.2426 0.00413069 72.5297 0.00413069 79.8168 0.00413069V3.15277H71.0621C71.0621 10.948 71.0621 18.7433 71.0621 26.5385C69.6242 26.5385 68.182 26.5385 66.744 26.5385C66.744 18.7433 66.744 10.948 66.744 3.15277C64.9466 3.15277 63.1449 3.15277 61.3475 3.15277C60.6623 3.18165 59.9772 3.26832 59.3597 3.56956C58.8564 3.81716 58.5096 4.2876 58.3362 4.80343C58.2093 4.80343 58.0782 4.80343 57.9514 4.80343V3.15277C57.9514 2.10459 57.9514 1.0523 57.9514 0V0.00413069ZM33.2269 0.44568C34.2843 0.11142 35.5446 0.647885 35.9844 1.65066C36.4708 2.65757 36.031 3.9781 35.0244 4.50631C34.225 4.95199 33.1508 4.86946 32.4488 4.28347C31.7086 3.69336 31.4295 2.62043 31.7848 1.75383C32.0301 1.13483 32.5756 0.639637 33.2269 0.44981V0.44568ZM87.1842 8.74852C88.0343 8.24507 89.0324 8.01809 90.0178 8.02222C91.1301 8.05523 92.234 8.45965 93.0629 9.19007C92.7119 10.2919 92.3608 11.3896 92.0098 12.4914C90.4746 11.1544 87.8651 11.0842 86.3637 12.5079C85.4079 13.4034 84.9427 14.6744 84.7227 15.9248C84.4986 17.1545 84.5493 18.4049 84.5409 19.647C84.5409 21.9456 84.5409 24.2441 84.5409 26.5385C83.2425 26.5385 81.9441 26.5385 80.6499 26.5385C80.6499 21.863 80.6499 17.1875 80.6499 12.512C80.633 11.6 80.6288 10.6385 80.2016 9.80494C79.9479 9.31387 79.4657 8.97548 78.9371 8.80629C78.9371 8.68249 78.9371 8.55456 78.9371 8.43076C80.7514 8.43076 82.57 8.43076 84.3844 8.43076C84.3971 9.60686 84.4098 10.783 84.4225 11.9591C85.0061 10.6633 85.9154 9.47068 87.1842 8.74439V8.74852ZM98.7851 8.53805C100.798 7.88604 103.052 7.79938 105.053 8.54631C106.364 9.03738 107.481 10.036 108.013 11.3112C108.394 12.186 108.521 13.1434 108.521 14.0884C108.521 17.1009 108.521 20.1133 108.521 23.1299C108.517 23.5591 108.669 24.0667 109.109 24.2441C109.688 24.4587 110.335 24.2813 110.856 23.9965C110.894 26.3735 107.502 27.7146 105.658 26.3941C105.154 26.0392 104.884 25.4573 104.782 24.8714C103.725 26.0021 102.198 26.6169 100.671 26.8398C99.3307 27.042 97.8843 26.8687 96.7339 26.13C95.7358 25.5069 95.0422 24.4546 94.8561 23.3156C94.6446 21.9414 94.8561 20.4476 95.702 19.3004C96.717 17.8932 98.3537 17.0679 99.9862 16.5231C101.5 16.0444 103.057 15.7019 104.626 15.4543C104.634 14.4598 104.672 13.4034 104.156 12.5079C103.759 11.7692 102.968 11.2947 102.135 11.1626C101.263 11.0264 100.367 11.1007 99.5083 11.2864C98.045 11.5918 96.7424 12.4336 95.757 13.5148C95.757 12.4254 95.757 11.3359 95.757 10.2465C96.5944 9.42941 97.6728 8.89708 98.7851 8.53393V8.53805ZM140.625 8.51742C142.224 7.92318 143.996 7.84478 145.671 8.15428C147.007 8.40188 148.293 8.97548 149.3 9.87922C150.454 10.8985 151.194 12.2974 151.584 13.7541C151.973 15.1613 152.011 16.6304 151.998 18.0748C147.574 18.0748 143.155 18.0748 138.731 18.0748C139.209 24.3431 146.179 25.2923 150.869 22.3252C150.226 25.5729 144.398 27.6816 140.854 26.4312C139.369 25.9237 138.02 25.0406 136.997 23.8727C135.884 22.6182 135.178 21.046 134.891 19.4159C134.4 16.6428 134.988 13.6345 136.751 11.3731C137.737 10.0938 139.09 9.07864 140.63 8.51742H140.625ZM30.2707 8.43076C32.14 8.43076 34.0051 8.43076 35.8745 8.43076C35.8745 14.4681 35.8745 20.5012 35.8745 26.5385C34.5761 26.5385 33.2777 26.5385 31.9835 26.5385C31.9835 21.863 31.9835 17.1834 31.9835 12.5079C31.9708 11.6165 31.9582 10.6839 31.5648 9.85858C31.3153 9.34275 30.8205 8.97961 30.2749 8.80216C30.2749 8.67836 30.2749 8.55043 30.2749 8.42663L30.2707 8.43076ZM140.642 12.0168C139.649 12.8917 139.128 14.1586 138.887 15.4172H148.145C148.086 14.8931 147.993 14.3731 147.819 13.8738C147.452 12.7184 146.606 11.6702 145.421 11.241C143.844 10.6715 141.907 10.8861 140.642 12.0168ZM101.111 18.6195C100.375 18.9496 99.6648 19.3994 99.1911 20.0556C98.7259 20.6869 98.5567 21.4999 98.6752 22.2674C98.7597 22.7957 99.0389 23.2991 99.4745 23.6251C100.045 24.0584 100.79 24.1987 101.5 24.1863C102.697 24.1657 103.856 23.5962 104.626 22.709C104.626 21.0253 104.626 19.3458 104.626 17.6621C103.425 17.8643 102.224 18.1284 101.111 18.6236V18.6195ZM120.596 11.2369C119.153 11.633 117.952 12.6771 117.288 13.9729C116.459 15.5575 116.337 17.4104 116.616 19.1436C116.853 20.5879 117.508 22.0322 118.701 22.9607C120.003 23.9883 121.843 24.2276 123.429 23.7902C124.656 23.4353 125.772 22.61 126.352 21.4834C126.373 18.5246 126.352 15.5658 126.36 12.6069C124.897 11.1461 122.575 10.6963 120.596 11.2369Z" fill="#2F6F23"/>
</svg>
