<?xml version="1.0" standalone="no"?>
<!DOCTYPE svg PUBLIC "-//W3C//DTD SVG 20010904//EN"
 "http://www.w3.org/TR/2001/REC-SVG-20010904/DTD/svg10.dtd">
<svg version="1.0" xmlns="http://www.w3.org/2000/svg"
 width="700.000000pt" height="700.000000pt" viewBox="0 0 700.000000 700.000000"
 preserveAspectRatio="xMidYMid meet">
<metadata>
Created by potrace 1.14, written by Peter Selinger 2001-2017
</metadata>
<g transform="translate(0.000000,700.000000) scale(0.100000,-0.100000)"
fill="#000000" stroke="none">
<path d="M155 6944 l0 -56 70 -48 c192 -129 276 -322 311 -713 3 -28 7 -1413
9 -3077 1 -1664 3 -3031 4 -3038 1 -11 65 -12 339 -7 185 3 355 7 377 9 22 2
85 7 140 11 55 4 117 8 139 10 41 3 56 17 56 53 0 12 16 102 36 200 19 97 37
186 40 198 2 11 17 72 34 135 17 63 33 125 36 138 3 14 7 28 10 33 3 4 7 17 9
27 2 11 24 81 50 157 212 632 531 1189 953 1664 123 138 402 409 497 481 17
13 32 26 35 29 9 11 207 164 271 211 151 109 366 246 569 362 58 33 423 215
515 257 152 70 491 201 690 268 220 74 494 156 501 150 2 -2 -33 -22 -79 -44
-45 -21 -107 -53 -137 -70 -30 -17 -89 -49 -130 -71 -230 -122 -754 -462 -846
-548 -6 -5 -26 -21 -44 -35 -30 -22 -111 -87 -163 -130 -239 -197 -558 -522
-745 -760 -29 -36 -55 -70 -60 -75 -88 -106 -264 -373 -386 -585 -31 -54 -173
-341 -211 -425 -150 -334 -320 -893 -371 -1215 -3 -19 -7 -43 -10 -52 -7 -23
-10 -41 -24 -133 -20 -126 -20 -123 -1 -119 789 162 1379 393 1946 762 72 46
132 88 133 93 2 5 8 9 14 9 5 0 54 34 108 76 211 161 425 358 580 534 41 46
83 93 93 105 37 41 166 213 229 305 295 434 494 916 613 1491 8 41 44 269 49
314 22 196 27 253 33 379 9 187 8 388 -2 571 -4 83 -8 165 -9 182 l-1 33 -60
-5 c-33 -2 -114 -7 -180 -10 -66 -3 -142 -8 -170 -10 -27 -3 -93 -7 -145 -10
-52 -3 -113 -7 -135 -9 -22 -2 -75 -7 -118 -10 -83 -7 -131 -12 -212 -21 -27
-3 -72 -8 -100 -11 -27 -3 -84 -9 -125 -14 -41 -6 -97 -12 -125 -15 -27 -3
-57 -8 -65 -10 -8 -2 -35 -7 -60 -9 -25 -3 -111 -17 -190 -31 -161 -27 -159
-27 -291 -55 -193 -40 -243 -51 -249 -55 -4 -2 -17 -6 -31 -9 -169 -33 -687
-201 -861 -279 -18 -9 -71 -32 -118 -52 -119 -53 -361 -174 -450 -227 -41 -24
-82 -47 -90 -51 -81 -36 -425 -282 -610 -436 -116 -96 -426 -399 -513 -501
l-47 -55 0 870 c0 479 -1 1354 -3 1945 l-2 1075 -660 3 -660 2 0 -56z"/>
<path d="M5502 6258 l3 -742 464 0 464 0 -1 725 c0 398 -1 732 -1 742 -1 16
-30 17 -466 17 l-465 0 2 -742z"/>
<path d="M6329 1594 c-158 -105 -310 -241 -409 -363 -19 -24 -40 -48 -46 -55
-25 -27 -118 -173 -159 -249 -88 -166 -172 -422 -190 -582 -4 -33 -9 -69 -11
-80 -2 -11 -6 -75 -9 -142 l-5 -121 465 0 465 0 1 26 c0 15 1 386 2 825 1 573
-1 797 -9 797 -6 0 -49 -25 -95 -56z"/>
</g>
</svg>
